<?xml version="1.0" encoding="utf-8"?>
<!-- Generator: Adobe Illustrator 22.1.0, SVG Export Plug-In . SVG Version: 6.00 Build 0)  -->
<svg version="1.1" xmlns="http://www.w3.org/2000/svg" xmlns:xlink="http://www.w3.org/1999/xlink" x="0px" y="0px"
	 viewBox="0 0 150.5 166" style="enable-background:new 0 0 150.5 166;" xml:space="preserve">
<style type="text/css">
	.st0{fill:#3C6A2C;}
	.st1{fill:#FFFFFF;}
	.st2{fill:#6FB62C;}
	.st3{fill:#99C667;}
	.st4{fill:#6A696B;}
	.st5{fill:none;stroke:#3C2C4C;stroke-miterlimit:10;}
	.st6{fill:#E94853;}
	.st7{fill:#7C1622;}
	.st8{fill:#EB9BA2;}
	.st9{fill:#7C7C7B;}
	.st10{fill:#A1A1A1;}
	.st11{fill:#898988;}
	.st12{fill:#3C3C3B;}
	.st13{fill:#C0C0BF;}
	.st14{fill:#99C667;stroke:#FFFFFF;stroke-miterlimit:10;}
</style>
<g id="ink">
</g>
<g id="moritas">
</g>
<g id="stickers">
	<g>
		<circle class="st0" cx="81.4" cy="95" r="63.7"/>
		<path class="st1" d="M81.4,32.4C116,32.4,144,60.4,144,95s-28.1,62.7-62.7,62.7S18.7,129.7,18.7,95S46.8,32.4,81.4,32.4
			 M81.4,30.3c-35.7,0-64.8,29.1-64.8,64.8s29.1,64.8,64.8,64.8s64.8-29.1,64.8-64.8S117.1,30.3,81.4,30.3L81.4,30.3z"/>
	</g>
	<circle class="st14" cx="81.4" cy="95" r="58.4"/>
	<g>
		<g>
			<path class="st2" d="M57.8,69.8c-0.1,0-0.3,0-0.4-0.1l-12.9-3.9c-0.3-0.1-0.5-0.3-0.7-0.5l-6-8c-0.1-0.1-0.2-0.3-0.2-0.5
				l-1.3-4.5c-1-1.1-4.2-4.9-4.2-10.8c0-0.8,0.6-1.4,1.3-1.4c0,0,0.1,0,0.1,0c0,0,0.1,0,0.1,0c-0.3-2.8-0.3-6.5,0.8-10.1
				c0.2-0.6,0.7-1,1.4-1c0.1,0,0.1,0,0.2,0c0.1,0,0.1,0,0.2,0c-0.5-2.7-0.7-5.9,0-8.7c0.2-0.6,0.7-1.1,1.4-1.1c0,0,0.1,0,0.1,0
				c0.2,0,0.5,0.1,0.7,0.2c0.2-3.8,1.2-9.3,4.6-13.5c0.3-0.4,0.7-0.5,1.1-0.5c0.3,0,0.6,0.1,0.8,0.3c0.2,0.1,3.3,2.4,5.9,5.5
				c-0.1-0.2-0.1-0.4-0.2-0.6c-0.2-0.6,0.1-1.3,0.7-1.7c0.2-0.1,0.5-0.2,0.7-0.2c0.4,0,0.8,0.2,1.1,0.5c0.5,0.6,3.3,3.8,5.3,7.3
				c0-0.1,0-0.1,0-0.2c-0.2-0.6,0.1-1.3,0.7-1.7c0.2-0.1,0.4-0.2,0.7-0.2c0.4,0,0.8,0.2,1.1,0.5c0.3,0.3,5.2,6.2,8.2,11.8
				c0-0.7,0-1.3-0.2-1.8c-0.2-0.6,0.1-1.3,0.7-1.6c0.2-0.1,0.5-0.2,0.7-0.2c0.4,0,0.7,0.1,1,0.4c0.5,0.4,11.7,11.1,8,26.6
				c-3.7,15.6-20.3,19.4-21,19.6C58,69.8,57.9,69.8,57.8,69.8z"/>
			<path class="st0" d="M44,6.8c0,0,7.3,5.2,8.8,10.4c0,0,0.2-3.8-0.8-7.1c0,0,7.3,8.5,7.4,12.6c0,0,1.2-3.9,0.3-6.8
				c0,0,9.1,10.9,10.1,16.7c0,0,1-5.6,0.4-8c0,0,11.2,10.3,7.6,25.3S57.8,68.4,57.8,68.4l-12.9-3.9l-6-8l-1.4-4.9c0,0-4-3.7-4-10.1
				c0,0,0.4,2.9,2.4,3.1c0,0-2.1-7.2-0.1-14.2c0,0,0,3.8,3.3,4.1c0,0-3.1-8-1.6-13.8c0,0,0.3,2.9,2.3,3.4
				C39.7,24.1,38.5,13.7,44,6.8 M44,3.9c-0.8,0-1.7,0.4-2.2,1.1c-3.2,4-4.4,8.9-4.8,12.8c-1.1,0.2-2,1-2.3,2.1
				c-0.7,2.5-0.6,5.3-0.2,7.9c-0.7,0.3-1.3,1-1.5,1.8c-1,3.3-1.1,6.7-0.9,9.4c-0.9,0.5-1.5,1.4-1.5,2.5c0,6,3,10,4.3,11.5l1.2,4.2
				c0.1,0.3,0.3,0.6,0.5,0.9l6,8c0.4,0.5,0.9,0.8,1.5,1L57,71.1c0.3,0.1,0.5,0.1,0.8,0.1c0.2,0,0.4,0,0.6-0.1
				C59.2,71,76.6,67,80.5,50.5c3.9-16.3-7.9-27.5-8.4-28c-0.5-0.5-1.2-0.8-1.9-0.8c-0.5,0-1,0.1-1.5,0.4c-0.2,0.1-0.4,0.3-0.6,0.5
				c-2.7-4.2-5.7-7.9-6.3-8.5c-0.6-0.7-1.4-1-2.2-1c-0.5,0-0.9,0.1-1.3,0.3c-0.1,0-0.1,0.1-0.2,0.1c-1.6-2.3-3.2-4.3-4.1-5.3
				c-0.6-0.6-1.4-1-2.2-1c-0.5,0-1,0.1-1.4,0.4c-0.2,0.1-0.5,0.3-0.6,0.5c-2-2-3.9-3.3-4.3-3.6C45.1,4.1,44.6,3.9,44,3.9L44,3.9z"/>
		</g>
		<g>
			<path class="st3" d="M41.9,53.4c0,0-3-3.2-3-8.5c0,0,0.3,2.5,1.8,2.6c0,0-1.6-6.1-0.1-12c0,0,0,3.2,2.4,3.5c0,0-2.3-6.7-1.2-11.6
				c0,0,0.2,2.5,1.7,2.9c0,0-0.9-8.7,3.1-14.5c0,0,5.4,4.4,6.5,8.7c0,0,0.2-3.2-0.6-6c0,0,5.4,7.1,5.5,10.6c0,0,0.9-3.3,0.2-5.7
				c0,0,6.7,9.2,7.5,14.1c0,0,0.7-4.7,0.3-6.8c0,0,8.2,8.7,5.6,21.2c-2.6,12.5-14.5,15.5-14.5,15.5l-9.5-3.3l-4.4-6.8L41.9,53.4z"/>
		</g>
		<path class="st3" d="M68.1,52.4c-0.5,0.2,6.9-10.6,4.1-19.2C72.2,33.2,84,47.2,68.1,52.4z"/>
		<g>
			<path class="st2" d="M39.4,90.8c-0.3,0-7-0.2-10.5-4.9c-0.3-0.4-0.4-0.9-0.2-1.4c-2.1-1.2-4.4-3-6.4-5.4
				c-0.4-0.5-0.4-1.1-0.1-1.7c-1.5-1-2.9-2.3-3.7-3.8c-0.2-0.4-0.2-0.9,0-1.4c-1.6-1-3.2-2.2-4.1-3.5c-0.4-0.6-0.3-1.4,0.2-1.9
				c0.2-0.1,0.3-0.2,0.5-0.3c-3.8-3.1-9-7.9-11.1-11.9c-0.3-0.5-0.2-1.2,0.2-1.6c0.3-0.3,0.7-0.5,1.1-0.5c0.2,0,0.3,0,0.5,0.1
				c0,0,3.8,1.4,8.7,1.4c1,0,1.9-0.1,2.8-0.2c-0.3-0.5-0.6-1-0.9-1.6c-0.2-0.6,0-1.2,0.4-1.5c0.3-0.2,0.6-0.3,0.9-0.3
				c0.2,0,0.5,0.1,0.7,0.2c0,0,2.5,1.3,6.8,1.3c0,0,0.1,0,0.1,0c-0.4-0.4-0.8-1-1-1.7c-0.2-0.5,0-1,0.3-1.4c0.3-0.3,0.7-0.5,1.1-0.5
				c0.1,0,0.2,0,0.3,0c0,0,4,0.7,8.2,0.7c2.1,0,3.8-0.2,5.2-0.5c-0.5-1-0.8-2.2-0.1-3.2c0.2-0.3,0.6-0.5,0.9-0.6c0.1,0,0.2,0,0.2,0
				c0.3,0,0.6,0.1,0.8,0.3c0.8,0.6,2.6,1.7,4.5,2.5c-0.3-0.9-0.4-2.1-0.1-3.4c0.1-0.4,0.4-0.8,0.7-1c0.2-0.1,0.4-0.2,0.7-0.2
				c0.2,0,0.4,0,0.5,0.1c0.5,0.2,12.5,5.4,14.8,21.2c0.7,1.5,4,9.4,0,16.3c-3.4,5.9-11.1,9.3-22.9,10C39.5,90.8,39.5,90.8,39.4,90.8
				C39.4,90.8,39.4,90.8,39.4,90.8z"/>
			<path class="st0" d="M47.1,44.5c0,0,11.8,4.9,13.9,20.3c0,0,11.4,22.6-21.6,24.5c0,0-6.3-0.1-9.3-4.3c0,0,2.1,1.2,4.2,1.2
				c0.6,0,1.2-0.1,1.8-0.4c0,0-7.2-1.2-12.7-7.7c0,0,2.5,1.3,4.5,1.3c0.4,0,0.8-0.1,1.1-0.2c0,0-7.2-2.6-9.2-6.3c0,0,2,0.9,3.5,0.9
				c0.4,0,0.9-0.1,1.2-0.3c0,0-6.8-2.7-8.8-5.6c0,0,1,0.9,3.5,0.9c0.4,0,0.8,0,1.2-0.1c0,0-11.6-8.6-14.9-14.8c0,0,4,1.5,9.2,1.5
				c1.8,0,3.8-0.2,5.8-0.7c0,0-1.9-1.1-2.5-3c0,0,2.7,1.5,7.5,1.5c1.8,0,3.9-0.2,6.2-0.8c0,0,0,0,0,0c0,0-4.9,0-5.7-2.7
				c0,0,4.1,0.7,8.4,0.7c2.6,0,5.4-0.3,7.4-1.1c0,0-1.7-2.3-1.1-3.2c0,0,4.9,3.6,8.4,3.6c0.1,0,0.1,0,0.2,0
				C49.2,49.9,46.4,48.2,47.1,44.5 M47.1,41.7c-0.5,0-0.9,0.1-1.3,0.3c-0.8,0.4-1.3,1.1-1.5,1.9c-0.1,0.4-0.1,0.9-0.2,1.3
				c-0.8-0.5-1.5-0.9-1.9-1.2c-0.5-0.4-1.1-0.5-1.7-0.5c-0.2,0-0.3,0-0.5,0c-0.7,0.1-1.4,0.5-1.9,1.2c-0.7,0.9-0.8,1.9-0.6,2.9
				c-0.9,0.1-2,0.2-3.3,0.2c-4.1,0-7.9-0.7-7.9-0.7c-0.2,0-0.3,0-0.5,0c-0.8,0-1.6,0.3-2.1,1c-0.6,0.7-0.8,1.6-0.7,2.4
				c-2.5-0.3-3.9-1-3.9-1c-0.4-0.2-0.9-0.3-1.3-0.3c-0.7,0-1.3,0.2-1.8,0.7c-0.9,0.7-1.2,1.9-0.9,3c-0.2,0-0.4,0-0.6,0
				c-4.6,0-8.2-1.3-8.2-1.3c-0.3-0.1-0.7-0.2-1-0.2c-0.8,0-1.6,0.3-2.1,1c-0.8,0.9-0.9,2.2-0.4,3.2c2,3.7,6.4,8.1,10.1,11.2
				c-0.4,0.9-0.3,2.1,0.3,3c0.8,1.2,2.2,2.4,3.7,3.3c0,0.5,0.1,0.9,0.3,1.4c0.7,1.4,2,2.6,3.3,3.6c0,0.7,0.2,1.4,0.7,2
				c1.9,2.3,4,4,6,5.2c0,0.5,0.2,1,0.5,1.5c3.8,5.2,11.3,5.4,11.6,5.4c0,0,0,0,0.1,0c0.1,0,0.1,0,0.2,0c12.3-0.7,20.4-4.3,24.1-10.7
				c4.2-7.3,1-15.4,0.1-17.4c-2.5-16.5-15.1-21.9-15.6-22.1C47.8,41.8,47.5,41.7,47.1,41.7L47.1,41.7z"/>
		</g>
		<g>
			<path class="st3" d="M41.6,84.4c0,0-5.2-0.1-7.7-3.2c0,0,3,1.5,4.9,0.6c0,0-5.9-0.8-10.4-5.7c0,0,3.1,1.5,4.6,0.8
				c0,0-5.9-1.9-7.5-4.7c0,0,2.7,1.2,3.8,0.5c0,0-5.6-2-7.2-4.1c0,0,1.1,0.9,3.8,0.6c0,0-9.5-6.3-12.2-11c0,0,6,2,12.4,0.5
				c0,0-1.6-0.8-2.1-2.2c0,0,4.3,2,11.3,0.4c0,0-4,0-4.7-2c0,0,8.6,1.4,13-0.4c0,0-1.4-1.7-0.9-2.4c0,0,4.2,2.8,7.1,2.6
				c0,0-2.3-1.2-1.7-4c0,0,9.7,3.6,11.4,15.1C59.3,66,68.7,82.8,41.6,84.4z"/>
		</g>
		<g>
			<g>
				
					<ellipse transform="matrix(0.8961 -0.4439 0.4439 0.8961 -49.7434 52.2776)" class="st6" cx="86.8" cy="132.4" rx="9.8" ry="9.7"/>
				<g>
					<path class="st7" d="M94.2,125.8c1.7,1.9,2.9,4.4,3,7.2c0.1,2.8-1.2,5.6-3.4,7.3c-2.2,1.8-5.1,2.3-7.7,2.1
						c-2.6-0.2-5.2-1.3-7.1-3.2c-1-0.9-1.8-2.1-2.3-3.4c-0.5-1.3-0.7-2.7-0.7-4.1c0.1-2.8,1.4-5.6,3.6-7.5c1.1-0.9,2.3-1.6,3.7-2
						c1.3-0.4,2.8-0.5,4.1-0.3C90.2,122.4,92.5,123.9,94.2,125.8z M94.1,126c-0.9-0.9-1.9-1.7-3.1-2.1c-1.2-0.4-2.4-0.6-3.6-0.5
						c-2.4,0.2-4.6,1.1-6.3,2.6c-1.7,1.5-2.9,3.6-3.1,5.9c-0.2,2.3,0.4,4.7,1.8,6.6c0.7,0.9,1.7,1.8,2.8,2.3
						c1.1,0.6,2.3,0.9,3.5,0.9c2.5,0.1,4.8-1.1,6.5-2.8c1.7-1.6,2.8-3.7,3.2-6c0.2-1.2,0.2-2.4-0.1-3.6
						C95.5,128.1,94.9,126.9,94.1,126z"/>
				</g>
			</g>
			<g>
				
					<ellipse transform="matrix(0.9317 -0.3632 0.3632 0.9317 -14.0855 40.1658)" class="st6" cx="99.8" cy="57.5" rx="10.8" ry="10.6"/>
				<g>
					<path class="st7" d="M108.8,51.5c1.6,2.3,2.5,5.2,2.2,8.2c-0.3,3-2.2,5.8-4.8,7.4c-2.6,1.6-5.8,1.9-8.6,1.3
						c-2.8-0.6-5.5-2.1-7.3-4.5c-0.9-1.2-1.6-2.5-2-4c-0.4-1.5-0.4-3-0.1-4.6c0.5-3,2.3-5.9,5-7.5c1.3-0.8,2.8-1.4,4.3-1.7
						c1.5-0.3,3.1-0.1,4.5,0.3C104.9,47.2,107.2,49.1,108.8,51.5z M108.6,51.6c-0.8-1.1-1.8-2.1-3.1-2.7c-1.2-0.7-2.5-1-3.9-1.1
						c-2.6-0.2-5.2,0.5-7.3,1.9c-2.1,1.4-3.7,3.6-4.3,6.1c-0.6,2.5-0.2,5.2,1.1,7.5c0.7,1.1,1.6,2.2,2.7,2.9
						c1.1,0.8,2.4,1.3,3.8,1.5c2.7,0.4,5.4-0.5,7.5-2.1c2.1-1.5,3.6-3.7,4.4-6.2c0.4-1.3,0.6-2.6,0.4-4
						C109.9,54.1,109.4,52.7,108.6,51.6z"/>
				</g>
			</g>
			<g>
				
					<ellipse transform="matrix(0.9317 -0.3632 0.3632 0.9317 -13.9664 36.5433)" class="st6" cx="90.2" cy="55.4" rx="10.8" ry="10.6"/>
				<g>
					<path class="st7" d="M99.2,49.3c1.6,2.3,2.5,5.2,2.2,8.2c-0.3,3-2.2,5.8-4.8,7.4c-2.6,1.6-5.8,1.9-8.6,1.3
						c-2.8-0.6-5.5-2.1-7.3-4.5c-0.9-1.2-1.6-2.5-2-4c-0.4-1.5-0.4-3-0.1-4.6c0.5-3,2.3-5.9,5-7.5c1.3-0.8,2.8-1.4,4.3-1.7
						c1.5-0.3,3.1-0.1,4.5,0.3C95.3,45.1,97.7,47,99.2,49.3z M99.1,49.5c-0.8-1.1-1.8-2.1-3.1-2.7c-1.2-0.7-2.5-1-3.9-1.1
						c-2.6-0.2-5.2,0.5-7.3,1.9c-2.1,1.4-3.7,3.6-4.3,6.1c-0.6,2.5-0.2,5.2,1.1,7.5c0.7,1.1,1.6,2.2,2.7,2.9
						c1.1,0.8,2.4,1.3,3.8,1.5c2.7,0.4,5.4-0.5,7.5-2.1c2.1-1.5,3.6-3.7,4.4-6.2c0.4-1.3,0.6-2.6,0.4-4
						C100.4,51.9,99.8,50.6,99.1,49.5z"/>
				</g>
			</g>
			<g>
				
					<ellipse transform="matrix(0.8961 -0.4439 0.4439 0.8961 -45.675 41.9144)" class="st6" cx="66.7" cy="118.5" rx="9.8" ry="9.7"/>
				<g>
					<path class="st7" d="M74.1,112c1.7,1.9,2.9,4.4,3,7.2c0.1,2.8-1.2,5.6-3.4,7.3c-2.2,1.8-5.1,2.3-7.7,2.1
						c-2.6-0.2-5.2-1.3-7.1-3.2c-1-0.9-1.8-2.1-2.3-3.4c-0.5-1.3-0.7-2.7-0.7-4.1c0.1-2.8,1.4-5.6,3.6-7.5c1.1-0.9,2.3-1.6,3.7-2
						c1.3-0.4,2.8-0.5,4.1-0.3C70.1,108.6,72.4,110.1,74.1,112z M74,112.1c-0.9-0.9-1.9-1.7-3.1-2.1c-1.2-0.4-2.4-0.6-3.6-0.5
						c-2.4,0.2-4.6,1.1-6.3,2.6c-1.7,1.5-2.9,3.6-3.1,5.9c-0.2,2.3,0.4,4.7,1.8,6.6c0.7,0.9,1.7,1.8,2.8,2.3
						c1.1,0.6,2.3,0.9,3.5,0.9c2.5,0.1,4.8-1.1,6.5-2.8c1.7-1.6,2.8-3.7,3.2-6c0.2-1.2,0.2-2.4-0.1-3.6
						C75.4,114.2,74.8,113,74,112.1z"/>
				</g>
			</g>
			<g>
				
					<ellipse transform="matrix(0.8961 -0.4439 0.4439 0.8961 -35.5258 64.372)" class="st6" cx="119.7" cy="108.1" rx="9.8" ry="9.7"/>
				<g>
					<path class="st7" d="M127.2,101.5c1.7,1.9,2.9,4.4,3,7.2c0.1,2.8-1.2,5.6-3.4,7.3c-2.2,1.8-5.1,2.3-7.7,2.1
						c-2.6-0.2-5.2-1.3-7.1-3.2c-1-0.9-1.8-2.1-2.3-3.4c-0.5-1.3-0.7-2.7-0.7-4.1c0.1-2.8,1.4-5.6,3.6-7.5c1.1-0.9,2.3-1.6,3.7-2
						c1.3-0.4,2.8-0.5,4.1-0.3C123.1,98.1,125.5,99.6,127.2,101.5z M127,101.7c-0.9-0.9-1.9-1.7-3.1-2.1c-1.2-0.4-2.4-0.6-3.6-0.5
						c-2.4,0.2-4.6,1.1-6.3,2.6c-1.7,1.5-2.9,3.6-3.1,5.9c-0.2,2.3,0.4,4.7,1.8,6.6c0.7,0.9,1.7,1.8,2.8,2.3
						c1.1,0.6,2.3,0.9,3.5,0.9c2.5,0.1,4.8-1.1,6.5-2.8c1.7-1.6,2.8-3.7,3.2-6c0.2-1.2,0.2-2.4-0.1-3.6
						C128.4,103.7,127.8,102.6,127,101.7z"/>
				</g>
			</g>
			<g>
				
					<ellipse transform="matrix(0.8961 -0.4439 0.4439 0.8961 -43.7641 65.0681)" class="st6" cx="117.1" cy="126" rx="9.8" ry="9.7"/>
				<g>
					<path class="st7" d="M124.5,119.5c1.7,1.9,2.9,4.4,3,7.2c0.1,2.8-1.2,5.6-3.4,7.3c-2.2,1.8-5.1,2.3-7.7,2.1
						c-2.6-0.2-5.2-1.3-7.1-3.2c-1-0.9-1.8-2.1-2.3-3.4c-0.5-1.3-0.7-2.7-0.7-4.1c0.1-2.8,1.4-5.6,3.6-7.5c1.1-0.9,2.3-1.6,3.7-2
						c1.3-0.4,2.8-0.5,4.1-0.3C120.5,116,122.8,117.5,124.5,119.5z M124.4,119.6c-0.9-0.9-1.9-1.7-3.1-2.1c-1.2-0.4-2.4-0.6-3.6-0.5
						c-2.4,0.2-4.6,1.1-6.3,2.6c-1.7,1.5-2.9,3.6-3.1,5.9c-0.2,2.3,0.4,4.7,1.8,6.6c0.7,0.9,1.7,1.8,2.8,2.3
						c1.1,0.6,2.3,0.9,3.5,0.9c2.5,0.1,4.8-1.1,6.5-2.8c1.7-1.6,2.8-3.7,3.2-6c0.2-1.2,0.2-2.4-0.1-3.6
						C125.8,121.7,125.2,120.5,124.4,119.6z"/>
				</g>
			</g>
			<g>
				<ellipse class="st6" cx="78.9" cy="57.2" rx="10.3" ry="10.2"/>
				<g>
					<path class="st7" d="M87.4,51.4c1.5,2.2,2.4,5,2.1,7.8c-0.3,2.9-2,5.6-4.5,7.1c-2.5,1.5-5.6,1.7-8.2,1.1
						c-2.7-0.6-5.2-2.1-7-4.3c-0.9-1.1-1.6-2.4-1.9-3.8c-0.4-1.4-0.4-2.9-0.2-4.4c0.3-1.4,0.8-2.9,1.6-4.1c0.8-1.3,1.9-2.3,3.1-3.1
						c1.3-0.8,2.7-1.4,4.1-1.6c1.5-0.2,2.9-0.1,4.3,0.3C83.7,47.4,85.9,49.2,87.4,51.4z M87.3,51.6c-0.8-1.1-1.8-2-2.9-2.6
						c-1.1-0.6-2.4-0.9-3.7-1.1c-2.5-0.2-4.9,0.4-6.9,1.8c-2,1.3-3.5,3.4-4,5.7c-0.5,2.4-0.2,4.9,1.1,7.1c0.6,1.1,1.5,2.1,2.6,2.8
						c1.1,0.7,2.3,1.2,3.6,1.5c2.6,0.4,5.2-0.5,7.1-1.9c2-1.5,3.4-3.5,4.2-5.9c0.4-1.2,0.5-2.5,0.4-3.8C88.5,53.9,88,52.7,87.3,51.6
						z"/>
				</g>
			</g>
			<g>
				<ellipse class="st6" cx="69.3" cy="66.1" rx="10.3" ry="10.2"/>
				<g>
					<path class="st7" d="M77.9,60.4c1.5,2.2,2.4,5,2.1,7.8c-0.3,2.9-2,5.6-4.5,7.1c-2.5,1.5-5.6,1.7-8.2,1.1
						c-2.7-0.6-5.2-2.1-7-4.3c-0.9-1.1-1.6-2.4-1.9-3.8c-0.4-1.4-0.4-2.9-0.2-4.4c0.3-1.4,0.8-2.9,1.6-4.1c0.8-1.3,1.9-2.3,3.1-3.1
						c1.3-0.8,2.7-1.4,4.1-1.6c1.5-0.2,2.9-0.1,4.3,0.3C74.2,56.3,76.4,58.2,77.9,60.4z M77.8,60.5c-0.8-1.1-1.8-2-2.9-2.6
						c-1.1-0.6-2.4-0.9-3.7-1.1c-2.5-0.2-4.9,0.4-6.9,1.8c-2,1.3-3.5,3.4-4,5.7c-0.5,2.4-0.2,4.9,1.1,7.1c0.6,1.1,1.5,2.1,2.6,2.8
						c1.1,0.7,2.3,1.2,3.6,1.5c2.6,0.4,5.2-0.5,7.1-1.9c2-1.5,3.4-3.5,4.2-5.9c0.4-1.2,0.5-2.5,0.4-3.8C79,62.9,78.5,61.6,77.8,60.5
						z"/>
				</g>
			</g>
			<g>
				<ellipse class="st6" cx="57.5" cy="74.3" rx="10.3" ry="10.2"/>
				<g>
					<path class="st7" d="M66.1,68.5c1.5,2.2,2.4,5,2.1,7.8c-0.3,2.9-2,5.6-4.5,7.1c-2.5,1.5-5.6,1.7-8.2,1.1
						c-2.7-0.6-5.2-2.1-7-4.3c-0.9-1.1-1.6-2.4-1.9-3.8c-0.4-1.4-0.4-2.9-0.2-4.4c0.3-1.4,0.8-2.9,1.6-4.1c0.8-1.3,1.9-2.3,3.1-3.1
						c1.3-0.8,2.7-1.4,4.1-1.6c1.5-0.2,2.9-0.1,4.3,0.3C62.4,64.4,64.6,66.3,66.1,68.5z M66,68.6c-0.8-1.1-1.8-2-2.9-2.6
						c-1.1-0.6-2.4-0.9-3.7-1.1c-2.5-0.2-4.9,0.4-6.9,1.8c-2,1.3-3.5,3.4-4,5.7c-0.5,2.4-0.2,4.9,1.1,7.1c0.6,1.1,1.5,2.1,2.6,2.8
						c1.1,0.7,2.3,1.2,3.6,1.5c2.6,0.4,5.2-0.5,7.1-1.9c2-1.5,3.4-3.5,4.2-5.9c0.4-1.2,0.5-2.5,0.4-3.8C67.2,71,66.7,69.7,66,68.6z"
						/>
				</g>
			</g>
			<g>
				<ellipse class="st6" cx="49.5" cy="82.9" rx="10.3" ry="10.2"/>
				<g>
					<path class="st7" d="M58.1,77.2c1.5,2.2,2.4,5,2.1,7.8c-0.3,2.9-2,5.6-4.5,7.1c-2.5,1.5-5.6,1.7-8.2,1.1
						c-2.7-0.6-5.2-2.1-7-4.3c-0.9-1.1-1.6-2.4-1.9-3.8c-0.4-1.4-0.4-2.9-0.2-4.4c0.3-1.4,0.8-2.9,1.6-4.1c0.8-1.3,1.9-2.3,3.1-3.1
						c1.3-0.8,2.7-1.4,4.1-1.6c1.5-0.2,2.9-0.1,4.3,0.3C54.4,73.1,56.6,74.9,58.1,77.2z M57.9,77.3c-0.8-1.1-1.8-2-2.9-2.6
						c-1.1-0.6-2.4-0.9-3.7-1.1c-2.5-0.2-4.9,0.4-6.9,1.8c-2,1.3-3.5,3.4-4,5.7c-0.5,2.4-0.2,4.9,1.1,7.1c0.6,1.1,1.5,2.1,2.6,2.8
						c1.1,0.7,2.3,1.2,3.6,1.5c2.6,0.4,5.2-0.5,7.1-1.9c2-1.5,3.4-3.5,4.2-5.9c0.4-1.2,0.5-2.5,0.4-3.8
						C59.1,79.7,58.7,78.4,57.9,77.3z"/>
				</g>
			</g>
			<g>
				
					<ellipse transform="matrix(0.9317 -0.3632 0.3632 0.9317 -37.1041 28.7685)" class="st6" cx="57.9" cy="113" rx="9.8" ry="9.7"/>
				<g>
					<path class="st7" d="M66.2,107.5c1.4,2.1,2.3,4.7,2,7.5c-0.3,2.7-2,5.4-4.4,6.8c-2.4,1.5-5.3,1.7-7.9,1.1
						c-2.6-0.5-5-1.9-6.7-4.1c-0.8-1.1-1.5-2.3-1.8-3.7c-0.3-1.4-0.4-2.8-0.1-4.2c0.5-2.8,2.1-5.4,4.5-6.9c1.2-0.8,2.5-1.3,3.9-1.5
						c1.4-0.2,2.8-0.1,4.1,0.3C62.6,103.6,64.7,105.4,66.2,107.5z M66,107.6c-0.7-1-1.7-1.9-2.8-2.5c-1.1-0.6-2.3-0.9-3.5-1
						c-2.4-0.1-4.7,0.5-6.6,1.8c-1.9,1.3-3.3,3.2-3.8,5.4c-0.5,2.2-0.2,4.7,0.9,6.8c0.6,1,1.4,2,2.4,2.7c1,0.7,2.2,1.2,3.4,1.4
						c2.5,0.4,4.9-0.5,6.8-1.9c1.9-1.4,3.3-3.3,4-5.6c0.4-1.1,0.6-2.4,0.4-3.6C67.2,109.9,66.7,108.7,66,107.6z"/>
				</g>
			</g>
			<g>
				
					<ellipse transform="matrix(0.9317 -0.3632 0.3632 0.9317 -40.0613 36.7917)" class="st6" cx="77.8" cy="124.9" rx="9.8" ry="9.7"/>
				<g>
					<path class="st7" d="M86,119.4c1.4,2.1,2.3,4.7,2,7.5c-0.3,2.7-2,5.4-4.4,6.8c-2.4,1.5-5.3,1.7-7.9,1.1c-2.6-0.5-5-1.9-6.7-4.1
						c-0.8-1.1-1.5-2.3-1.8-3.7c-0.3-1.4-0.4-2.8-0.1-4.2c0.5-2.8,2.1-5.4,4.5-6.9c1.2-0.8,2.5-1.3,3.9-1.5c1.4-0.2,2.8-0.1,4.1,0.3
						C82.5,115.5,84.6,117.3,86,119.4z M85.9,119.5c-0.7-1-1.7-1.9-2.8-2.5c-1.1-0.6-2.3-0.9-3.5-1c-2.4-0.1-4.7,0.5-6.6,1.8
						c-1.9,1.3-3.3,3.2-3.8,5.4c-0.5,2.2-0.2,4.7,0.9,6.8c0.6,1,1.4,2,2.4,2.7c1,0.7,2.2,1.2,3.4,1.4c2.5,0.4,4.9-0.5,6.8-1.9
						c1.9-1.4,3.3-3.3,4-5.6c0.4-1.1,0.6-2.4,0.4-3.6C87,121.8,86.6,120.6,85.9,119.5z"/>
				</g>
			</g>
			<g>
				
					<ellipse transform="matrix(0.9317 -0.3632 0.3632 0.9317 -34.3635 29.4743)" class="st6" cx="61.2" cy="106.1" rx="9.8" ry="9.7"/>
				<g>
					<path class="st7" d="M69.4,100.6c1.4,2.1,2.3,4.7,2,7.5c-0.3,2.7-2,5.4-4.4,6.8c-2.4,1.5-5.3,1.7-7.9,1.1
						c-2.6-0.5-5-1.9-6.7-4.1c-0.8-1.1-1.5-2.3-1.8-3.7c-0.3-1.4-0.4-2.8-0.1-4.2c0.5-2.8,2.1-5.4,4.5-6.9c1.2-0.8,2.5-1.3,3.9-1.5
						c1.4-0.2,2.8-0.1,4.1,0.3C65.9,96.7,68,98.5,69.4,100.6z M69.3,100.7c-0.7-1-1.7-1.9-2.8-2.5c-1.1-0.6-2.3-0.9-3.5-1
						c-2.4-0.1-4.7,0.5-6.6,1.8c-1.9,1.3-3.3,3.2-3.8,5.4c-0.5,2.2-0.2,4.7,0.9,6.8c0.6,1,1.4,2,2.4,2.7c1,0.7,2.2,1.2,3.4,1.4
						c2.5,0.4,4.9-0.5,6.8-1.9c1.9-1.4,3.3-3.3,4-5.6c0.4-1.1,0.6-2.4,0.4-3.6C70.4,103,70,101.7,69.3,100.7z"/>
				</g>
			</g>
			<g>
				
					<ellipse transform="matrix(0.8961 -0.4439 0.4439 0.8961 -50.0368 56.6975)" class="st6" cx="96.1" cy="135.2" rx="9.8" ry="9.7"/>
				<g>
					<path class="st7" d="M103.5,128.7c1.7,1.9,2.9,4.4,3,7.2c0.1,2.8-1.2,5.6-3.4,7.3c-2.2,1.8-5.1,2.3-7.7,2.1
						c-2.6-0.2-5.2-1.3-7.1-3.2c-1-0.9-1.8-2.1-2.3-3.4c-0.5-1.3-0.7-2.7-0.7-4.1c0.1-2.8,1.4-5.6,3.6-7.5c1.1-0.9,2.3-1.6,3.7-2
						c1.3-0.4,2.8-0.5,4.1-0.3C99.5,125.3,101.8,126.8,103.5,128.7z M103.4,128.8c-0.9-0.9-1.9-1.7-3.1-2.1
						c-1.2-0.4-2.4-0.6-3.6-0.5c-2.4,0.2-4.6,1.1-6.3,2.6c-1.7,1.5-2.9,3.6-3.1,5.9c-0.2,2.3,0.4,4.7,1.8,6.6
						c0.7,0.9,1.7,1.8,2.8,2.3c1.1,0.6,2.3,0.9,3.5,0.9c2.5,0.1,4.8-1.1,6.5-2.8c1.7-1.6,2.8-3.7,3.2-6c0.2-1.2,0.2-2.4-0.1-3.6
						C104.8,130.9,104.2,129.7,103.4,128.8z"/>
				</g>
			</g>
			<g>
				
					<ellipse transform="matrix(0.9317 -0.3632 0.3632 0.9317 -37.1716 35.1855)" class="st6" cx="75" cy="116.4" rx="9.8" ry="9.7"/>
				<g>
					<path class="st7" d="M83.2,110.9c1.4,2.1,2.3,4.7,2,7.5c-0.3,2.7-2,5.4-4.4,6.8c-2.4,1.5-5.3,1.7-7.9,1.1
						c-2.6-0.5-5-1.9-6.7-4.1c-0.8-1.1-1.5-2.3-1.8-3.7c-0.3-1.4-0.4-2.8-0.1-4.2c0.5-2.8,2.1-5.4,4.5-6.9c1.2-0.8,2.5-1.3,3.9-1.5
						c1.4-0.2,2.8-0.1,4.1,0.3C79.7,107,81.8,108.8,83.2,110.9z M83,111c-0.7-1-1.7-1.9-2.8-2.5c-1.1-0.6-2.3-0.9-3.5-1
						c-2.4-0.1-4.7,0.5-6.6,1.8c-1.9,1.3-3.3,3.2-3.8,5.4c-0.5,2.2-0.2,4.7,0.9,6.8c0.6,1,1.4,2,2.4,2.7c1,0.7,2.2,1.2,3.4,1.4
						c2.5,0.4,4.9-0.5,6.8-1.9c1.9-1.4,3.3-3.3,4-5.6c0.4-1.1,0.6-2.4,0.4-3.6C84.2,113.3,83.8,112.1,83,111z"/>
				</g>
			</g>
			<g>
				
					<ellipse transform="matrix(0.8961 -0.4439 0.4439 0.8961 -47.2224 52.7352)" class="st6" cx="89" cy="127.2" rx="9.8" ry="9.7"/>
				<g>
					<path class="st7" d="M96.5,120.7c1.7,1.9,2.9,4.4,3,7.2c0.1,2.8-1.2,5.6-3.4,7.3c-2.2,1.8-5.1,2.3-7.7,2.1
						c-2.6-0.2-5.2-1.3-7.1-3.2c-1-0.9-1.8-2.1-2.3-3.4c-0.5-1.3-0.7-2.7-0.7-4.1c0.1-2.8,1.4-5.6,3.6-7.5c1.1-0.9,2.3-1.6,3.7-2
						c1.3-0.4,2.8-0.5,4.1-0.3C92.4,117.3,94.8,118.8,96.5,120.7z M96.3,120.8c-0.9-0.9-1.9-1.7-3.1-2.1c-1.2-0.4-2.4-0.6-3.6-0.5
						c-2.4,0.2-4.6,1.1-6.3,2.6c-1.7,1.5-2.9,3.6-3.1,5.9c-0.2,2.3,0.4,4.7,1.8,6.6c0.7,0.9,1.7,1.8,2.8,2.3
						c1.1,0.6,2.3,0.9,3.5,0.9c2.5,0.1,4.8-1.1,6.5-2.8c1.7-1.6,2.8-3.7,3.2-6c0.2-1.2,0.2-2.4-0.1-3.6
						C97.7,122.9,97.1,121.8,96.3,120.8z"/>
				</g>
			</g>
			<g>
				
					<ellipse transform="matrix(0.8961 -0.4439 0.4439 0.8961 -43.1846 52.4155)" class="st6" cx="90.4" cy="118.4" rx="9.8" ry="9.7"/>
				<g>
					<path class="st7" d="M97.8,111.9c1.7,1.9,2.9,4.4,3,7.2c0.1,2.8-1.2,5.6-3.4,7.3c-2.2,1.8-5.1,2.3-7.7,2.1
						c-2.6-0.2-5.2-1.3-7.1-3.2c-1-0.9-1.8-2.1-2.3-3.4c-0.5-1.3-0.7-2.7-0.7-4.1c0.1-2.8,1.4-5.6,3.6-7.5c1.1-0.9,2.3-1.6,3.7-2
						c1.3-0.4,2.8-0.5,4.1-0.3C93.8,108.5,96.1,110,97.8,111.9z M97.6,112c-0.9-0.9-1.9-1.7-3.1-2.1c-1.2-0.4-2.4-0.6-3.6-0.5
						c-2.4,0.2-4.6,1.1-6.3,2.6c-1.7,1.5-2.9,3.6-3.1,5.9c-0.2,2.3,0.4,4.7,1.8,6.6c0.7,0.9,1.7,1.8,2.8,2.3
						c1.1,0.6,2.3,0.9,3.5,0.9c2.5,0.1,4.8-1.1,6.5-2.8c1.7-1.6,2.8-3.7,3.2-6c0.2-1.2,0.2-2.4-0.1-3.6
						C99.1,114.1,98.5,113,97.6,112z"/>
				</g>
			</g>
			<g>
				
					<ellipse transform="matrix(0.8961 -0.4439 0.4439 0.8961 -47.8196 61.1218)" class="st6" cx="106.6" cy="132.7" rx="9.8" ry="9.7"/>
				<g>
					<path class="st7" d="M114.1,126.1c1.7,1.9,2.9,4.4,3,7.2c0.1,2.8-1.2,5.6-3.4,7.3c-2.2,1.8-5.1,2.3-7.7,2.1
						c-2.6-0.2-5.2-1.3-7.1-3.2c-1-0.9-1.8-2.1-2.3-3.4c-0.5-1.3-0.7-2.7-0.7-4.1c0.1-2.8,1.4-5.6,3.6-7.5c1.1-0.9,2.3-1.6,3.7-2
						c1.3-0.4,2.8-0.5,4.1-0.3C110,122.7,112.4,124.2,114.1,126.1z M113.9,126.3c-0.9-0.9-1.9-1.7-3.1-2.1c-1.2-0.4-2.4-0.6-3.6-0.5
						c-2.4,0.2-4.6,1.1-6.3,2.6c-1.7,1.5-2.9,3.6-3.1,5.9c-0.2,2.3,0.4,4.7,1.8,6.6c0.7,0.9,1.7,1.8,2.8,2.3
						c1.1,0.6,2.3,0.9,3.5,0.9c2.5,0.1,4.8-1.1,6.5-2.8c1.7-1.6,2.8-3.7,3.2-6c0.2-1.2,0.2-2.4-0.1-3.6
						C115.4,128.4,114.8,127.2,113.9,126.3z"/>
				</g>
			</g>
			<g>
				
					<ellipse transform="matrix(0.8961 -0.4439 0.4439 0.8961 -32.4375 61.7249)" class="st6" cx="115.6" cy="100.1" rx="9.8" ry="9.7"/>
				<g>
					<path class="st7" d="M123.1,93.6c1.7,1.9,2.9,4.4,3,7.2c0.1,2.8-1.2,5.6-3.4,7.3c-2.2,1.8-5.1,2.3-7.7,2.1
						c-2.6-0.2-5.2-1.3-7.1-3.2c-1-0.9-1.8-2.1-2.3-3.4c-0.5-1.3-0.7-2.7-0.7-4.1c0.1-2.8,1.4-5.6,3.6-7.5c1.1-0.9,2.3-1.6,3.7-2
						c1.3-0.4,2.8-0.5,4.1-0.3C119,90.2,121.3,91.7,123.1,93.6z M122.9,93.7c-0.9-0.9-1.9-1.7-3.1-2.1c-1.2-0.4-2.4-0.6-3.6-0.5
						c-2.4,0.2-4.6,1.1-6.3,2.6c-1.7,1.5-2.9,3.6-3.1,5.9c-0.2,2.3,0.4,4.7,1.8,6.6c0.7,0.9,1.7,1.8,2.8,2.3
						c1.1,0.6,2.3,0.9,3.5,0.9c2.5,0.1,4.8-1.1,6.5-2.8c1.7-1.6,2.8-3.7,3.2-6c0.2-1.2,0.2-2.4-0.1-3.6
						C124.3,95.8,123.7,94.7,122.9,93.7z"/>
				</g>
			</g>
			<g>
				
					<ellipse transform="matrix(0.8961 -0.4439 0.4439 0.8961 -37.6253 63.9751)" class="st6" cx="117.8" cy="112.3" rx="9.8" ry="9.7"/>
				<g>
					<path class="st7" d="M125.3,105.8c1.7,1.9,2.9,4.4,3,7.2c0.1,2.8-1.2,5.6-3.4,7.3c-2.2,1.8-5.1,2.3-7.7,2.1
						c-2.6-0.2-5.2-1.3-7.1-3.2c-1-0.9-1.8-2.1-2.3-3.4c-0.5-1.3-0.7-2.7-0.7-4.1c0.1-2.8,1.4-5.6,3.6-7.5c1.1-0.9,2.3-1.6,3.7-2
						c1.3-0.4,2.8-0.5,4.1-0.3C121.2,102.4,123.6,103.9,125.3,105.8z M125.1,105.9c-0.9-0.9-1.9-1.7-3.1-2.1
						c-1.2-0.4-2.4-0.6-3.6-0.5c-2.4,0.2-4.6,1.1-6.3,2.6c-1.7,1.5-2.9,3.6-3.1,5.9c-0.2,2.3,0.4,4.7,1.8,6.6
						c0.7,0.9,1.7,1.8,2.8,2.3c1.1,0.6,2.3,0.9,3.5,0.9c2.5,0.1,4.8-1.1,6.5-2.8c1.7-1.6,2.8-3.7,3.2-6c0.2-1.2,0.2-2.4-0.1-3.6
						C126.5,108,125.9,106.9,125.1,105.9z"/>
				</g>
			</g>
			<g>
				
					<ellipse transform="matrix(0.8961 -0.4439 0.4439 0.8961 -42.6955 60.1108)" class="st6" cx="107" cy="121.2" rx="9.8" ry="9.7"/>
				<g>
					<path class="st7" d="M114.5,114.7c1.7,1.9,2.9,4.4,3,7.2c0.1,2.8-1.2,5.6-3.4,7.3c-2.2,1.8-5.1,2.3-7.7,2.1
						c-2.6-0.2-5.2-1.3-7.1-3.2c-1-0.9-1.8-2.1-2.3-3.4c-0.5-1.3-0.7-2.7-0.7-4.1c0.1-2.8,1.4-5.6,3.6-7.5c1.1-0.9,2.3-1.6,3.7-2
						c1.3-0.4,2.8-0.5,4.1-0.3C110.4,111.3,112.8,112.8,114.5,114.7z M114.3,114.8c-0.9-0.9-1.9-1.7-3.1-2.1
						c-1.2-0.4-2.4-0.6-3.6-0.5c-2.4,0.2-4.6,1.1-6.3,2.6c-1.7,1.5-2.9,3.6-3.1,5.9c-0.2,2.3,0.4,4.7,1.8,6.6
						c0.7,0.9,1.7,1.8,2.8,2.3c1.1,0.6,2.3,0.9,3.5,0.9c2.5,0.1,4.8-1.1,6.5-2.8c1.7-1.6,2.8-3.7,3.2-6c0.2-1.2,0.2-2.4-0.1-3.6
						C115.8,116.9,115.2,115.8,114.3,114.8z"/>
				</g>
			</g>
			<g>
				<ellipse class="st6" cx="44.5" cy="104.5" rx="9.2" ry="9.1"/>
				<g>
					<path class="st7" d="M52.2,99.3c1.3,2,2.2,4.4,2,7c-0.2,2.6-1.8,5.1-4.1,6.4c-2.3,1.4-5,1.5-7.4,1c-2.4-0.5-4.7-1.8-6.3-3.9
						c-1.6-2-2.4-4.7-1.9-7.4c0.4-2.6,2-5.1,4.2-6.6c1.1-0.7,2.4-1.2,3.7-1.4c1.3-0.2,2.7-0.1,3.9,0.3
						C48.9,95.6,50.9,97.3,52.2,99.3z M52,99.4c-0.7-1-1.6-1.8-2.6-2.3c-1-0.5-2.2-0.8-3.3-0.9c-2.2-0.1-4.4,0.4-6.1,1.6
						c-1.7,1.2-3.1,3-3.5,5.1c-0.5,2.1-0.2,4.4,0.9,6.3c1.1,2,3.1,3.5,5.4,3.8c2.3,0.4,4.6-0.5,6.3-1.8c1.7-1.3,3-3.1,3.7-5.2
						c0.3-1.1,0.5-2.2,0.4-3.4C53.1,101.5,52.7,100.4,52,99.4z"/>
				</g>
			</g>
			<g>
				<ellipse class="st6" cx="42.7" cy="92.3" rx="9.2" ry="9.1"/>
				<g>
					<path class="st7" d="M50.4,87.2c1.3,2,2.2,4.4,2,7c-0.2,2.6-1.8,5.1-4.1,6.4c-2.3,1.4-5,1.5-7.4,1c-2.4-0.5-4.7-1.8-6.3-3.9
						c-1.6-2-2.4-4.7-1.9-7.4c0.4-2.6,2-5.1,4.2-6.6c1.1-0.7,2.4-1.2,3.7-1.4c1.3-0.2,2.7-0.1,3.9,0.3C47,83.5,49,85.2,50.4,87.2z
						 M50.2,87.3c-0.7-1-1.6-1.8-2.6-2.3c-1-0.5-2.2-0.8-3.3-0.9c-2.2-0.1-4.4,0.4-6.1,1.6c-1.7,1.2-3.1,3-3.5,5.1
						c-0.5,2.1-0.2,4.4,0.9,6.3c1.1,2,3.1,3.5,5.4,3.8c2.3,0.4,4.6-0.5,6.3-1.8c1.7-1.3,3-3.1,3.7-5.2c0.3-1.1,0.5-2.2,0.4-3.4
						C51.3,89.4,50.9,88.3,50.2,87.3z"/>
				</g>
			</g>
			<g>
				
					<ellipse transform="matrix(0.8723 -0.489 0.489 0.8723 -39.7379 37.5903)" class="st6" cx="52.1" cy="94.9" rx="10.2" ry="9.8"/>
				<g>
					<path class="st7" d="M60.6,89.1c1.5,2.2,2.3,4.9,2,7.7c-0.3,2.8-2.1,5.4-4.5,6.9c-2.5,1.5-5.4,1.7-8,1.2
						c-2.6-0.5-5.2-1.9-6.9-4.1c-0.9-1.1-1.5-2.4-1.8-3.8c-0.3-1.4-0.3-2.9,0-4.3c0.6-2.8,2.3-5.4,4.7-7c1.2-0.8,2.6-1.3,4-1.6
						c1.4-0.3,2.9-0.2,4.2,0.2C56.9,85.2,59.2,87,60.6,89.1z M60.5,89.3c-0.7-1.1-1.7-1.9-2.9-2.5c-1.1-0.6-2.4-0.9-3.6-0.9
						c-2.4-0.1-4.8,0.6-6.7,1.9c-1.9,1.3-3.4,3.3-4,5.6c-0.6,2.3-0.3,4.8,0.9,6.9c0.6,1.1,1.5,2,2.5,2.7c1,0.7,2.3,1.2,3.5,1.3
						c2.5,0.4,5-0.6,6.9-2c1.9-1.4,3.4-3.4,4.2-5.7c0.4-1.2,0.6-2.4,0.5-3.7C61.6,91.6,61.2,90.3,60.5,89.3z"/>
				</g>
			</g>
			<g>
				<ellipse class="st6" cx="106.8" cy="73.7" rx="10.3" ry="10.2"/>
				<g>
					<path class="st7" d="M115.4,68c1.5,2.2,2.4,5,2.1,7.8c-0.3,2.9-2,5.6-4.5,7.1c-2.5,1.5-5.6,1.7-8.2,1.1c-2.7-0.6-5.2-2.1-7-4.3
						c-0.9-1.1-1.6-2.4-1.9-3.8c-0.4-1.4-0.4-2.9-0.2-4.4c0.3-1.4,0.8-2.9,1.6-4.1c0.8-1.3,1.9-2.3,3.1-3.1c1.3-0.8,2.7-1.4,4.1-1.6
						c1.5-0.2,2.9-0.1,4.3,0.3C111.7,63.9,113.9,65.8,115.4,68z M115.2,68.1c-0.8-1.1-1.8-2-2.9-2.6c-1.1-0.6-2.4-0.9-3.7-1.1
						c-2.5-0.2-4.9,0.4-6.9,1.8c-2,1.3-3.5,3.4-4,5.7c-0.5,2.4-0.2,4.9,1.1,7.1c0.6,1.1,1.5,2.1,2.6,2.8c1.1,0.7,2.3,1.2,3.6,1.5
						c2.6,0.4,5.2-0.5,7.1-1.9c2-1.5,3.4-3.5,4.2-5.9c0.4-1.2,0.5-2.5,0.4-3.8C116.4,70.5,116,69.2,115.2,68.1z"/>
				</g>
			</g>
			<g>
				
					<ellipse transform="matrix(0.9317 -0.3632 0.3632 0.9317 -24.1716 46.4579)" class="st6" cx="111.4" cy="87.5" rx="10.8" ry="10.6"/>
				<g>
					<path class="st7" d="M120.5,81.4c1.6,2.3,2.5,5.2,2.2,8.2c-0.3,3-2.2,5.8-4.8,7.4c-2.6,1.6-5.8,1.9-8.6,1.3
						c-2.8-0.6-5.5-2.1-7.3-4.5c-0.9-1.2-1.6-2.5-2-4c-0.4-1.5-0.4-3-0.1-4.6c0.5-3,2.3-5.9,5-7.5c1.3-0.8,2.8-1.4,4.3-1.7
						c1.5-0.3,3.1-0.1,4.5,0.3C116.6,77.2,118.9,79.1,120.5,81.4z M120.3,81.5c-0.8-1.1-1.8-2.1-3.1-2.7c-1.2-0.7-2.5-1-3.9-1.1
						c-2.6-0.2-5.2,0.5-7.3,1.9c-2.1,1.4-3.7,3.6-4.3,6.1c-0.6,2.5-0.2,5.2,1.1,7.5c0.7,1.1,1.6,2.2,2.7,2.9
						c1.1,0.8,2.4,1.3,3.8,1.5c2.7,0.4,5.4-0.5,7.5-2.1c2.1-1.5,3.6-3.7,4.4-6.2c0.4-1.3,0.6-2.6,0.4-4
						C121.6,84,121.1,82.7,120.3,81.5z"/>
				</g>
			</g>
			<g>
				<ellipse class="st6" cx="95.2" cy="62.9" rx="10.3" ry="10.2"/>
				<g>
					<path class="st7" d="M103.8,57.2c1.5,2.2,2.4,5,2.1,7.8c-0.3,2.9-2,5.6-4.5,7.1c-2.5,1.5-5.6,1.7-8.2,1.1
						c-2.7-0.6-5.2-2.1-7-4.3c-0.9-1.1-1.6-2.4-1.9-3.8c-0.4-1.4-0.4-2.9-0.2-4.4c0.3-1.4,0.8-2.9,1.6-4.1c0.8-1.3,1.9-2.3,3.1-3.1
						c1.3-0.8,2.7-1.4,4.1-1.6c1.5-0.2,2.9-0.1,4.3,0.3C100.1,53.1,102.3,55,103.8,57.2z M103.6,57.3c-0.8-1.1-1.8-2-2.9-2.6
						c-1.1-0.6-2.4-0.9-3.7-1.1c-2.5-0.2-4.9,0.4-6.9,1.8c-2,1.3-3.5,3.4-4,5.7c-0.5,2.4-0.2,4.9,1.1,7.1c0.6,1.1,1.5,2.1,2.6,2.8
						c1.1,0.7,2.3,1.2,3.6,1.5c2.6,0.4,5.2-0.5,7.1-1.9c2-1.5,3.4-3.5,4.2-5.9c0.4-1.2,0.5-2.5,0.4-3.8
						C104.9,59.7,104.4,58.4,103.6,57.3z"/>
				</g>
			</g>
			<g>
				<ellipse class="st6" cx="84.7" cy="67.4" rx="10.3" ry="10.2"/>
				<g>
					<path class="st7" d="M93.3,61.6c1.5,2.2,2.4,5,2.1,7.8c-0.3,2.9-2,5.6-4.5,7.1c-2.5,1.5-5.6,1.7-8.2,1.1
						c-2.7-0.6-5.2-2.1-7-4.3c-0.9-1.1-1.6-2.4-1.9-3.8c-0.4-1.4-0.4-2.9-0.2-4.4c0.3-1.4,0.8-2.9,1.6-4.1c0.8-1.3,1.9-2.3,3.1-3.1
						c1.3-0.8,2.7-1.4,4.1-1.6c1.5-0.2,2.9-0.1,4.3,0.3C89.6,57.5,91.8,59.4,93.3,61.6z M93.1,61.7c-0.8-1.1-1.8-2-2.9-2.6
						c-1.1-0.6-2.4-0.9-3.7-1.1c-2.5-0.2-4.9,0.4-6.9,1.8c-2,1.3-3.5,3.4-4,5.7c-0.5,2.4-0.2,4.9,1.1,7.1c0.6,1.1,1.5,2.1,2.6,2.8
						c1.1,0.7,2.3,1.2,3.6,1.5c2.6,0.4,5.2-0.5,7.1-1.9c2-1.5,3.4-3.5,4.2-5.9c0.4-1.2,0.5-2.5,0.4-3.8
						C94.3,64.1,93.9,62.8,93.1,61.7z"/>
				</g>
			</g>
			<g>
				<ellipse class="st6" cx="71.5" cy="76.5" rx="12" ry="11.9"/>
				<g>
					<path class="st7" d="M81.5,69.7c1.7,2.6,2.8,5.8,2.4,9.2c-0.3,3.3-2.4,6.5-5.3,8.2c-1.4,0.9-3.1,1.4-4.7,1.6
						c-1.6,0.2-3.3,0.1-4.8-0.2c-3.1-0.7-6.1-2.4-8.1-5c-1-1.3-1.8-2.8-2.2-4.5c-0.4-1.6-0.5-3.4-0.2-5c0.3-1.7,0.9-3.3,1.8-4.7
						c0.9-1.4,2.2-2.7,3.6-3.6c1.4-0.9,3.1-1.6,4.7-1.8c1.7-0.3,3.4-0.2,5,0.3C77.1,65,79.8,67.1,81.5,69.7z M81.3,69.9
						c-0.9-1.3-2.1-2.4-3.4-3.1c-1.3-0.8-2.8-1.2-4.3-1.3c-2.9-0.2-5.9,0.4-8.2,2.1c-2.3,1.6-4.1,4-4.7,6.8
						c-0.6,2.8-0.2,5.9,1.3,8.4c0.8,1.3,1.8,2.4,3,3.3c1.2,0.9,2.7,1.5,4.2,1.7c3,0.5,6.1-0.5,8.4-2.2c2.3-1.7,4.1-4.1,4.9-7
						c0.4-1.4,0.6-3,0.4-4.5C82.8,72.6,82.2,71.1,81.3,69.9z"/>
				</g>
			</g>
			<g>
				<ellipse class="st6" cx="64.8" cy="90.9" rx="12" ry="11.9"/>
				<g>
					<path class="st7" d="M74.8,84.2c1.7,2.6,2.8,5.8,2.4,9.2c-0.3,3.3-2.4,6.5-5.3,8.2c-1.4,0.9-3.1,1.4-4.7,1.6
						c-1.6,0.2-3.3,0.1-4.8-0.2c-3.1-0.7-6.1-2.4-8.1-5c-1-1.3-1.8-2.8-2.2-4.5c-0.4-1.6-0.5-3.4-0.2-5c0.3-1.7,0.9-3.3,1.8-4.7
						c0.9-1.4,2.2-2.7,3.6-3.6c1.4-0.9,3.1-1.6,4.7-1.8c1.7-0.3,3.4-0.2,5,0.3C70.5,79.4,73.1,81.6,74.8,84.2z M74.7,84.3
						c-0.9-1.3-2.1-2.4-3.4-3.1c-1.3-0.8-2.8-1.2-4.3-1.3c-2.9-0.2-5.9,0.4-8.2,2.1c-2.3,1.6-4.1,4-4.7,6.8
						c-0.6,2.8-0.2,5.9,1.3,8.4c0.8,1.3,1.8,2.4,3,3.3c1.2,0.9,2.7,1.5,4.2,1.7c3,0.5,6.1-0.5,8.4-2.2c2.3-1.7,4.1-4.1,4.9-7
						c0.4-1.4,0.6-3,0.4-4.5C76.1,87,75.5,85.6,74.7,84.3z"/>
				</g>
			</g>
			<g>
				
					<ellipse transform="matrix(0.8961 -0.4439 0.4439 0.8961 -38.5867 57.229)" class="st6" cx="102.9" cy="111" rx="9.8" ry="9.7"/>
				<g>
					<path class="st7" d="M110.4,104.5c1.7,1.9,2.9,4.4,3,7.2c0.1,2.8-1.2,5.6-3.4,7.3c-2.2,1.8-5.1,2.3-7.7,2.1
						c-2.6-0.2-5.2-1.3-7.1-3.2c-1-0.9-1.8-2.1-2.3-3.4c-0.5-1.3-0.7-2.7-0.7-4.1c0.1-2.8,1.4-5.6,3.6-7.5c1.1-0.9,2.3-1.6,3.7-2
						c1.3-0.4,2.8-0.5,4.1-0.3C106.3,101.1,108.7,102.6,110.4,104.5z M110.2,104.6c-0.9-0.9-1.9-1.7-3.1-2.1
						c-1.2-0.4-2.4-0.6-3.6-0.5c-2.4,0.2-4.6,1.1-6.3,2.6c-1.7,1.5-2.9,3.6-3.1,5.9c-0.2,2.3,0.4,4.7,1.8,6.6
						c0.7,0.9,1.7,1.8,2.8,2.3c1.1,0.6,2.3,0.9,3.5,0.9c2.5,0.1,4.8-1.1,6.5-2.8c1.7-1.6,2.8-3.7,3.2-6c0.2-1.2,0.2-2.4-0.1-3.6
						C111.7,106.7,111.1,105.6,110.2,104.6z"/>
				</g>
			</g>
			<g>
				
					<ellipse transform="matrix(0.9317 -0.3632 0.3632 0.9317 -31.4703 38.6176)" class="st6" cx="86.9" cy="103" rx="10.8" ry="10.6"/>
				<g>
					<path class="st7" d="M96,96.9c1.6,2.3,2.5,5.2,2.2,8.2c-0.3,3-2.2,5.8-4.8,7.4c-2.6,1.6-5.8,1.9-8.6,1.3
						c-2.8-0.6-5.5-2.1-7.3-4.5c-0.9-1.2-1.6-2.5-2-4c-0.4-1.5-0.4-3-0.1-4.6c0.5-3,2.3-5.9,5-7.5c1.3-0.8,2.8-1.4,4.3-1.7
						c1.5-0.3,3.1-0.1,4.5,0.3C92.1,92.6,94.4,94.6,96,96.9z M95.8,97c-0.8-1.1-1.8-2.1-3.1-2.7c-1.2-0.7-2.5-1-3.9-1.1
						c-2.6-0.2-5.2,0.5-7.3,1.9c-2.1,1.4-3.7,3.6-4.3,6.1c-0.6,2.5-0.2,5.2,1.1,7.5c0.7,1.1,1.6,2.2,2.7,2.9
						c1.1,0.8,2.4,1.3,3.8,1.5c2.7,0.4,5.4-0.5,7.5-2.1c2.1-1.5,3.6-3.7,4.4-6.2c0.4-1.3,0.6-2.6,0.4-4C97.1,99.5,96.6,98.2,95.8,97
						z"/>
				</g>
			</g>
			<g>
				
					<ellipse transform="matrix(0.9317 -0.3632 0.3632 0.9317 -31.8739 32.4874)" class="st6" cx="70.4" cy="101" rx="10.8" ry="10.6"/>
				<g>
					<path class="st7" d="M79.5,94.9c1.6,2.3,2.5,5.2,2.2,8.2c-0.3,3-2.2,5.8-4.8,7.4c-2.6,1.6-5.8,1.9-8.6,1.3
						c-2.8-0.6-5.5-2.1-7.3-4.5c-0.9-1.2-1.6-2.5-2-4c-0.4-1.5-0.4-3-0.1-4.6c0.5-3,2.3-5.9,5-7.5c1.3-0.8,2.8-1.4,4.3-1.7
						c1.5-0.3,3.1-0.1,4.5,0.3C75.6,90.7,77.9,92.6,79.5,94.9z M79.3,95c-0.8-1.1-1.8-2.1-3.1-2.7c-1.2-0.7-2.5-1-3.9-1.1
						c-2.6-0.2-5.2,0.5-7.3,1.9c-2.1,1.4-3.7,3.6-4.3,6.1c-0.6,2.5-0.2,5.2,1.1,7.5c0.7,1.1,1.6,2.2,2.7,2.9
						c1.1,0.8,2.4,1.3,3.8,1.5c2.7,0.4,5.4-0.5,7.5-2.1c2.1-1.5,3.6-3.7,4.4-6.2c0.4-1.3,0.6-2.6,0.4-4C80.6,97.5,80.1,96.2,79.3,95
						z"/>
				</g>
			</g>
			<g>
				<ellipse class="st6" cx="96" cy="78.2" rx="10.3" ry="10.2"/>
				<g>
					<path class="st7" d="M104.6,72.5c1.5,2.2,2.4,5,2.1,7.8c-0.3,2.9-2,5.6-4.5,7.1c-2.5,1.5-5.6,1.7-8.2,1.1
						c-2.7-0.6-5.2-2.1-7-4.3c-0.9-1.1-1.6-2.4-1.9-3.8c-0.4-1.4-0.4-2.9-0.2-4.4c0.3-1.4,0.8-2.9,1.6-4.1c0.8-1.3,1.9-2.3,3.1-3.1
						c1.3-0.8,2.7-1.4,4.1-1.6c1.5-0.2,2.9-0.1,4.3,0.3C100.9,68.4,103.1,70.2,104.6,72.5z M104.4,72.6c-0.8-1.1-1.8-2-2.9-2.6
						c-1.1-0.6-2.4-0.9-3.7-1.1c-2.5-0.2-4.9,0.4-6.9,1.8c-2,1.3-3.5,3.4-4,5.7c-0.5,2.4-0.2,4.9,1.1,7.1c0.6,1.1,1.5,2.1,2.6,2.8
						c1.1,0.7,2.3,1.2,3.6,1.5c2.6,0.4,5.2-0.5,7.1-1.9c2-1.5,3.4-3.5,4.2-5.9c0.4-1.2,0.5-2.5,0.4-3.8
						C105.6,74.9,105.2,73.7,104.4,72.6z"/>
				</g>
			</g>
			<g>
				
					<ellipse transform="matrix(0.9317 -0.3632 0.3632 0.9317 -27.8286 42.3498)" class="st6" cx="98.7" cy="95.2" rx="10.8" ry="10.6"/>
				<g>
					<path class="st7" d="M107.8,89.1c1.6,2.3,2.5,5.2,2.2,8.2c-0.3,3-2.2,5.8-4.8,7.4c-2.6,1.6-5.8,1.9-8.6,1.3
						c-2.8-0.6-5.5-2.1-7.3-4.5c-0.9-1.2-1.6-2.5-2-4c-0.4-1.5-0.4-3-0.1-4.6c0.5-3,2.3-5.9,5-7.5c1.3-0.8,2.8-1.4,4.3-1.7
						c1.5-0.3,3.1-0.1,4.5,0.3C103.8,84.8,106.2,86.8,107.8,89.1z M107.6,89.2c-0.8-1.1-1.8-2.1-3.1-2.7c-1.2-0.7-2.5-1-3.9-1.1
						c-2.6-0.2-5.2,0.5-7.3,1.9c-2.1,1.4-3.7,3.6-4.3,6.1c-0.6,2.5-0.2,5.2,1.1,7.5c0.7,1.1,1.6,2.2,2.7,2.9
						c1.1,0.8,2.4,1.3,3.8,1.5c2.7,0.4,5.4-0.5,7.5-2.1c2.1-1.5,3.6-3.7,4.4-6.2c0.4-1.3,0.6-2.6,0.4-4
						C108.9,91.7,108.3,90.4,107.6,89.2z"/>
				</g>
			</g>
			<g>
				
					<ellipse transform="matrix(0.9317 -0.3632 0.3632 0.9317 -26.1947 35.685)" class="st6" cx="81.8" cy="87.5" rx="10.8" ry="10.6"/>
				<g>
					<path class="st7" d="M90.8,81.4c1.6,2.3,2.5,5.2,2.2,8.2c-0.3,3-2.2,5.8-4.8,7.4c-2.6,1.6-5.8,1.9-8.6,1.3
						c-2.8-0.6-5.5-2.1-7.3-4.5c-0.9-1.2-1.6-2.5-2-4c-0.4-1.5-0.4-3-0.1-4.6c0.5-3,2.3-5.9,5-7.5c1.3-0.8,2.8-1.4,4.3-1.7
						c1.5-0.3,3.1-0.1,4.5,0.3C86.9,77.2,89.3,79.1,90.8,81.4z M90.7,81.5c-0.8-1.1-1.8-2.1-3.1-2.7c-1.2-0.7-2.5-1-3.9-1.1
						c-2.6-0.2-5.2,0.5-7.3,1.9c-2.1,1.4-3.7,3.6-4.3,6.1c-0.6,2.5-0.2,5.2,1.1,7.5c0.7,1.1,1.6,2.2,2.7,2.9
						c1.1,0.8,2.4,1.3,3.8,1.5c2.7,0.4,5.4-0.5,7.5-2.1c2.1-1.5,3.6-3.7,4.4-6.2c0.4-1.3,0.6-2.6,0.4-4C92,84,91.4,82.7,90.7,81.5z"
						/>
				</g>
			</g>
		</g>
		<circle class="st8" cx="57.1" cy="86.9" r="1.2"/>
		<circle class="st8" cx="63.2" cy="99.9" r="1.2"/>
		<circle class="st8" cx="46.7" cy="95.9" r="2"/>
		<circle class="st8" cx="70.8" cy="67.7" r="1.2"/>
		<circle class="st8" cx="58.6" cy="84.4" r="0.7"/>
		<circle class="st8" cx="47" cy="89.6" r="0.7"/>
		<circle class="st8" cx="75.3" cy="85.8" r="0.8"/>
		<circle class="st8" cx="80.1" cy="82.3" r="2"/>
		<circle class="st8" cx="81.5" cy="62.1" r="1.2"/>
		<circle class="st8" cx="64.7" cy="74.9" r="1.8"/>
		<circle class="st8" cx="56.8" cy="67.3" r="0.6"/>
		<circle class="st8" cx="51.8" cy="70.8" r="0.9"/>
		<circle class="st8" cx="50.1" cy="76" r="0.9"/>
		<circle class="st8" cx="45.1" cy="80.4" r="2"/>
		<circle class="st8" cx="40.1" cy="87.3" r="0.6"/>
		<circle class="st8" cx="37.2" cy="91.7" r="1.4"/>
		<circle class="st8" cx="39.4" cy="103.7" r="0.9"/>
		<circle class="st8" cx="41.9" cy="109.4" r="2.4"/>
		<circle class="st8" cx="55.9" cy="107.7" r="0.8"/>
		<circle class="st8" cx="57.9" cy="112.2" r="1.5"/>
		<circle class="st8" cx="51.5" cy="114.9" r="1.1"/>
		<circle class="st8" cx="54" cy="118.2" r="0.7"/>
		<circle class="st8" cx="68.9" cy="119.6" r="0.9"/>
		<circle class="st8" cx="70.6" cy="115.5" r="1.7"/>
		<circle class="st8" cx="76.1" cy="105.1" r="1.1"/>
		<circle class="st8" cx="68.6" cy="97" r="2.5"/>
		<circle class="st8" cx="74" cy="67.3" r="0.5"/>
		<circle class="st8" cx="64.5" cy="62.5" r="0.7"/>
		<circle class="st8" cx="70.3" cy="60.5" r="2"/>
		<circle class="st8" cx="73.2" cy="54.3" r="0.8"/>
		<circle class="st8" cx="78.9" cy="50.6" r="1.5"/>
		<circle class="st8" cx="85.2" cy="53.9" r="0.7"/>
		<circle class="st8" cx="88.1" cy="48.4" r="0.9"/>
		<circle class="st8" cx="95.1" cy="49.5" r="2"/>
		<circle class="st8" cx="92.7" cy="56.8" r="0.8"/>
		<circle class="st8" cx="99.5" cy="59.3" r="2.1"/>
		<circle class="st8" cx="97.3" cy="63.7" r="0.5"/>
		<circle class="st8" cx="102.4" cy="61.5" r="0.7"/>
		<circle class="st8" cx="86.8" cy="62" r="3"/>
		<circle class="st8" cx="91.1" cy="73.4" r="0.9"/>
		<circle class="st8" cx="96.4" cy="74.9" r="0.9"/>
		<circle class="st8" cx="95.4" cy="78.8" r="2.3"/>
		<circle class="st8" cx="109.1" cy="67.7" r="1.4"/>
		<circle class="st8" cx="114" cy="71.6" r="0.9"/>
		<circle class="st8" cx="102.8" cy="50.1" r="0.7"/>
		<circle class="st8" cx="107.5" cy="54.9" r="1.6"/>
		<circle class="st8" cx="86.3" cy="110" r="1.1"/>
		<circle class="st8" cx="87.6" cy="103.4" r="1.9"/>
		<circle class="st8" cx="94.3" cy="97.9" r="0.7"/>
		<circle class="st8" cx="98.4" cy="91.9" r="2.1"/>
		<circle class="st8" cx="104.6" cy="94.2" r="1.1"/>
		<circle class="st8" cx="108.5" cy="85.8" r="1.2"/>
		<circle class="st8" cx="113" cy="81.4" r="2.1"/>
		<circle class="st8" cx="72.9" cy="129.1" r="1.1"/>
		<circle class="st8" cx="63.9" cy="124.4" r="0.7"/>
		<circle class="st8" cx="82.5" cy="129" r="0.8"/>
		<circle class="st8" cx="87.1" cy="133.8" r="1.9"/>
		<circle class="st8" cx="87.9" cy="124.3" r="1.4"/>
		<circle class="st8" cx="86.2" cy="118.7" r="1"/>
		<circle class="st8" cx="90.6" cy="117.8" r="1.2"/>
		<circle class="st8" cx="97.9" cy="112.4" r="0.8"/>
		<circle class="st8" cx="105.6" cy="111" r="2.2"/>
		<circle class="st8" cx="101" cy="117.1" r="0.9"/>
		<circle class="st8" cx="102.5" cy="125" r="0.9"/>
		<circle class="st8" cx="111.1" cy="122.9" r="1.9"/>
		<circle class="st8" cx="116.2" cy="109.1" r="1.2"/>
		<circle class="st8" cx="122.4" cy="110.2" r="1.8"/>
		<circle class="st8" cx="121.7" cy="99.4" r="1.1"/>
		<circle class="st8" cx="111.8" cy="87" r="1"/>
		<circle class="st8" cx="87.8" cy="89" r="1"/>
		<circle class="st8" cx="66.2" cy="86" r="0.9"/>
		<circle class="st8" cx="92.4" cy="131.3" r="0.8"/>
		<circle class="st8" cx="82.6" cy="137.7" r="0.8"/>
		<circle class="st8" cx="93.9" cy="141.3" r="0.9"/>
		<circle class="st8" cx="101.8" cy="132.9" r="0.8"/>
		<circle class="st8" cx="103.2" cy="138.7" r="1.6"/>
		<circle class="st8" cx="111.7" cy="134.4" r="1.1"/>
		<circle class="st8" cx="119.6" cy="132.1" r="0.9"/>
		<circle class="st8" cx="121.4" cy="126.7" r="2"/>
		<circle class="st8" cx="127.4" cy="104.9" r="0.9"/>
	</g>
	<path class="st1" d="M113.1,82.6c0,0,5.5,2.1,7.6-6.1c0,0-2,7,4.3,8.6c0,0-6.3-1.1-7.3,4.2C117.7,89.3,118.5,84.3,113.1,82.6z"/>
	<path class="st1" d="M92.8,80.6c0,0-5.9,0-4.9,8.4c0,0-0.6-7.2-7.1-6.6c0,0,6.3-1.2,5.3-6.5C86.1,75.9,87.1,80.9,92.8,80.6z"/>
	<path class="st1" d="M94.6,124.1c0,0-4.9,3.3,0.5,9.7c0,0-4.5-5.7-9.5-1.6c0,0,4.6-4.5,0.8-8.4C86.5,123.9,90.1,127.5,94.6,124.1z"
		/>
	<path class="st1" d="M45.5,105.2c0,0-2.7,5.2,5.2,8.2c0,0-6.7-2.8-9.1,3.2c0,0,1.9-6.1-3.3-7.7C38.2,108.9,43.1,110.4,45.5,105.2z"
		/>
	<path class="st1" d="M114.3,80c0,0,2-0.4,1.1-3.1c0,0,0.7,2.4,2.8,1.7c0,0-2,0.8-1.3,2.5C116.8,81.1,116.2,79.5,114.3,80z"/>
	<path class="st1" d="M84.6,77c0,0-1.7-1.1-2.9,1.5c0,0,1.1-2.2-0.8-3.2c0,0,2,0.8,2.7-0.9C83.6,74.4,83,76,84.6,77z"/>
	<path class="st1" d="M38,115.4c0,0,0.7-1.9-2.1-2.6c0,0,2.4,0.7,2.9-1.5c0,0-0.4,2.1,1.4,2.5C40.3,113.9,38.6,113.6,38,115.4z"/>
	<path class="st1" d="M48.7,74.6c0,0,3.9-0.8,2.1-6.2c0,0,1.4,4.7,5.6,3.4c0,0-4,1.6-2.7,5.1C53.8,76.8,52.4,73.6,48.7,74.6z"/>
</g>
</svg>
