<?xml version="1.0" encoding="utf-8"?>
<!-- Generator: Adobe Illustrator 22.1.0, SVG Export Plug-In . SVG Version: 6.00 Build 0)  -->
<svg version="1.1" xmlns="http://www.w3.org/2000/svg" xmlns:xlink="http://www.w3.org/1999/xlink" x="0px" y="0px"
	 viewBox="0 0 166.5 68" style="enable-background:new 0 0 166.5 68;" xml:space="preserve">
<style type="text/css">
	.st0{fill:#3C6A2C;}
	.st1{fill:#FFFFFF;}
	.st2{fill:#6FB62C;}
	.st3{fill:#99C667;}
	.st4{fill:#6A696B;}
	.st5{fill:none;stroke:#3C2C4C;stroke-miterlimit:10;}
	.st6{fill:#E94853;}
	.st7{fill:#7C1622;}
	.st8{fill:#EB9BA2;}
	.st9{fill:#7C7C7B;}
	.st10{fill:#A1A1A1;}
	.st11{fill:#898988;}
	.st12{fill:#3C3C3B;}
	.st13{fill:#C0C0BF;}
	.st14{fill:#99C667;stroke:#FFFFFF;stroke-miterlimit:10;}
</style>
<g id="ink">
</g>
<g id="moritas">
</g>
<g id="stickers">
	<g>
		<path class="st1" d="M20.6,22.1h0.9c1.2,0,1.8,0.9,2.1,2.6V25c0,2.6-1.1,4.3-3.2,5.1L20,29.8v-0.2l0.9-3.3l-0.8-0.4
			c-3.1,0-6.8,2.7-11.1,8.1c-1,1.6-1.5,2.9-1.5,3.7v0.2c0,2.1,1.4,3.1,4.1,3.1h0.2c2.7,0,5.6-0.7,8.8-2h0.6c0.5,0.2,0.8,0.7,0.8,1.4
			v0.8c-2.7,2.5-5.8,3.7-9.4,3.7c-4.9-0.5-7.3-2.7-7.3-6.7v-0.4c0-5.1,3.9-10.1,11.8-15C18.7,22.3,19.8,22.1,20.6,22.1z"/>
		<path class="st1" d="M36.8,22.1c4.3,0.6,6.4,3,6.4,7.3c0,5.6-2.3,10.3-7,14c-1.9,1.1-3.7,1.6-5.2,1.6c-3.7,0-6.1-1.9-7.2-5.7
			l-0.1-1.8v-0.6c0-6.1,3-10.8,8.9-14C34,22.3,35.4,22.1,36.8,22.1z M25.6,37.4c1.5,2.2,3.6,3.3,6.1,3.3c4.1,0,6.9-2.3,8.6-6.9
			l0.3-2.2c0-3.2-1.7-5.1-5-5.7h-0.5c-2.8,0-5.7,2.6-8.7,7.9C25.8,35.5,25.6,36.7,25.6,37.4z"/>
		<path class="st1" d="M55.3,22.1h2.1c3.2,0,4.8,1.1,4.8,3.2v0.2c0,3.7-3.3,7-10,10v0.2c3.3,2.9,6.1,5,8.4,6.5v0.6c0,1-0.3,1.7-1,2
			h-0.8L47.1,37L46.9,41v3c-0.4,0.7-0.9,1-1.7,1c-0.6,0-1-0.3-1.3-0.8v-1.2l1.9-15.3c-0.6,0-0.8-0.4-0.8-1.2c0-2.4,2.1-3.8,6.3-4.1
			L55.3,22.1z M47.9,32.7h0.2C55.4,31,59,29.1,59,27v-0.2c0-0.4-0.7-0.6-2.1-0.8c-2.3,0-5.1,0.5-8.4,1.4L47.9,32.7z"/>
		<path class="st1" d="M72.7,22.1h0.8c1.1,0,2.4,4.4,4.1,13.1c1.3,4.1,1.9,6.9,1.9,8.4c-0.3,0.8-0.8,1.2-1.6,1.2
			c-1,0-1.7-2.1-2.1-6.2l-0.2-0.2h-0.2c-1.7,0-5.3,0.9-10.7,2.7c-0.5,2.6-1.4,3.9-2.5,3.9c-0.8-0.3-1.2-0.8-1.2-1.6
			c0-1.5,3.6-8.4,10.7-20.7L72.7,22.1z M72.4,27.5c-1.6,2.5-3,5.1-4.3,7.8h1.4c1.3,0,3-0.3,5-0.8l-1.7-7H72.4z"/>
		<path class="st1" d="M89.4,22.1h0.4c0.6,0.3,0.9,0.9,0.9,1.6v0.4c0,4.2,0.4,9.1,1.1,14.8h0.2c4-10.6,6.4-16,7.1-16h0.5
			c0.5,0,1.4,3.7,2.5,11.1c1.1,3.8,1.6,7,1.6,9.5c-0.4,0.9-0.9,1.4-1.6,1.4c-0.5,0-1.1-3.2-2-9.5l-1.5-6.2c-1,1.7-2.9,6.1-5.6,13.2
			c-0.8,0.8-1.4,1.3-2,1.4c-1.6,0-2.4-2.1-2.4-6.4l-0.9-8.2h-0.2l-5.4,12.5c-0.3,2.1-0.6,3.1-0.9,3.1h-0.7l-0.7-0.8v-1
			c0-1.7,1.5-5.5,4.5-11.3c2.2-6.1,3.5-9.2,4.2-9.3L89.4,22.1z"/>
		<path class="st1" d="M118.4,22.1c4.3,0.6,6.4,3,6.4,7.3c0,5.6-2.3,10.3-7,14c-1.9,1.1-3.7,1.6-5.2,1.6c-3.7,0-6.1-1.9-7.2-5.7
			l-0.1-1.8v-0.6c0-6.1,3-10.8,8.9-14C115.6,22.3,117,22.1,118.4,22.1z M107.2,37.4c1.5,2.2,3.6,3.3,6.1,3.3c4.1,0,6.9-2.3,8.6-6.9
			l0.3-2.2c0-3.2-1.7-5.1-5-5.7h-0.5c-2.8,0-5.7,2.6-8.7,7.9C107.4,35.5,107.2,36.7,107.2,37.4z"/>
		<path class="st1" d="M136.9,22.1h2.1c3.2,0,4.8,1.1,4.8,3.2v0.2c0,3.7-3.4,7-10.1,10v0.2c3.3,2.9,6.1,5,8.4,6.5v0.6
			c0,1-0.3,1.7-1,2h-0.8L128.7,37l-0.2,3.9v3c-0.4,0.7-0.9,1-1.7,1c-0.6,0-1-0.3-1.3-0.8v-1.2l1.9-15.3c-0.6,0-0.8-0.4-0.8-1.2
			c0-2.4,2.1-3.8,6.3-4.1L136.9,22.1z M129.5,32.7h0.2c7.3-1.7,10.9-3.6,10.9-5.7v-0.2c0-0.4-0.7-0.6-2.1-0.8
			c-2.3,0-5.1,0.5-8.4,1.4L129.5,32.7z"/>
		<path class="st1" d="M154.3,22.1h0.8c1.1,0,2.4,4.4,4.1,13.1c1.3,4.1,1.9,6.9,1.9,8.4c-0.3,0.8-0.8,1.2-1.6,1.2
			c-1,0-1.7-2.1-2.1-6.2l-0.2-0.2H157c-1.7,0-5.3,0.9-10.7,2.7c-0.5,2.6-1.4,3.9-2.5,3.9c-0.8-0.3-1.2-0.8-1.2-1.6
			c0-1.5,3.6-8.4,10.7-20.7L154.3,22.1z M154,27.5c-1.6,2.5-3,5.1-4.3,7.8h1.4c1.3,0,3-0.3,5-0.8l-1.7-7H154z"/>
	</g>
</g>
</svg>
